G04 #@! TF.GenerationSoftware,KiCad,Pcbnew,(5.1.2-1)-1*
G04 #@! TF.CreationDate,2019-05-15T16:44:53-07:00*
G04 #@! TF.ProjectId,Final Box kicad,46696e61-6c20-4426-9f78-206b69636164,rev?*
G04 #@! TF.SameCoordinates,Original*
G04 #@! TF.FileFunction,Profile,NP*
%FSLAX46Y46*%
G04 Gerber Fmt 4.6, Leading zero omitted, Abs format (unit mm)*
G04 Created by KiCad (PCBNEW (5.1.2-1)-1) date 2019-05-15 16:44:53*
%MOMM*%
%LPD*%
G04 APERTURE LIST*
%ADD10C,0.100000*%
G04 APERTURE END LIST*
D10*
X151589025Y-69596000D02*
X180735000Y-69596000D01*
X151130000Y-69968561D02*
G75*
G02X151589025Y-69596000I64397J389716D01*
G01*
X140939484Y-68012684D02*
X190939484Y-68012684D01*
X190939484Y-68012684D02*
X190939484Y-118012683D01*
X151385857Y-114842967D02*
X180534346Y-114842967D01*
X180929346Y-115971967D02*
G75*
G02X180534346Y-116366967I0J-395000D01*
G01*
X151341337Y-116366967D02*
X180534346Y-116366967D01*
X151525000Y-71120000D02*
X180735000Y-71120000D01*
X181130000Y-70725000D02*
G75*
G02X180735000Y-71120000I0J-395000D01*
G01*
X151341337Y-116366967D02*
G75*
G02X150929346Y-115934336I-393160J38080D01*
G01*
X143321202Y-73040572D02*
X143321202Y-112250571D01*
X143716202Y-112645571D02*
G75*
G02X143321202Y-112250571I-395000J0D01*
G01*
X143716202Y-112645571D02*
X144450202Y-112645571D01*
X144845202Y-112250571D02*
G75*
G02X144450202Y-112645571I0J-395000D01*
G01*
X143716202Y-72645572D02*
X144450202Y-72645572D01*
X143321202Y-73040572D02*
G75*
G02X143716202Y-72645572I0J395000D01*
G01*
X187713040Y-73054600D02*
X188428773Y-73054600D01*
X187318040Y-73449600D02*
G75*
G02X187713040Y-73054600I0J395000D01*
G01*
X144845202Y-73040572D02*
X144845202Y-112250571D01*
X144450202Y-72645572D02*
G75*
G02X144845202Y-73040572I395000J0D01*
G01*
X150929347Y-115197549D02*
G75*
G02X151385857Y-114842967I63095J389928D01*
G01*
X187713040Y-113054599D02*
X188447040Y-113054599D01*
X188842040Y-112659599D02*
G75*
G02X188447040Y-113054599I0J-395000D01*
G01*
X140939484Y-118012683D02*
X140939484Y-68012684D01*
X150929346Y-115197549D02*
X150929346Y-115934336D01*
X188842040Y-73441933D02*
X188842040Y-112659599D01*
X188428771Y-73054600D02*
G75*
G02X188842040Y-73441933I394935J7242D01*
G01*
X187318040Y-73449600D02*
X187318040Y-112659599D01*
X187713040Y-113054599D02*
G75*
G02X187318040Y-112659599I-395000J0D01*
G01*
X190939484Y-118012683D02*
X140939484Y-118012683D01*
X180929346Y-115237967D02*
X180929346Y-115971967D01*
X180534346Y-114842967D02*
G75*
G02X180929346Y-115237967I395000J0D01*
G01*
X181130000Y-69991000D02*
X181130000Y-70725000D01*
X180735000Y-69596000D02*
G75*
G02X181130000Y-69991000I395000J0D01*
G01*
X151130000Y-69968560D02*
X151130000Y-70725000D01*
X151525000Y-71120000D02*
G75*
G02X151130000Y-70725000I-395000J0D01*
G01*
M02*
