<?xml version="1.0" encoding="utf-8"?>
<!-- Generator: Adobe Illustrator 23.0.3, SVG Export Plug-In . SVG Version: 6.00 Build 0)  -->
<svg version="1.1" id="Layer_1" xmlns="http://www.w3.org/2000/svg" xmlns:xlink="http://www.w3.org/1999/xlink" x="0px" y="0px"
	 viewBox="0 0 2880 2016" style="enable-background:new 0 0 2880 2016;" xml:space="preserve">
<style type="text/css">
	.st0{fill:none;stroke:#000000;stroke-miterlimit:10;}
	.st1{fill:#FFFFFF;stroke:#000000;stroke-miterlimit:10;}
</style>
<path class="st0" d="M224.29,486.15"/>
<path class="st0" d="M700.87,527.95"/>
<path class="st0" d="M63,494.72"/>
<path class="st1" d="M386.24,315.83c12.62-22.93,20.01-49.07,20.57-76.86h-37.79v-6.99h37.78c-0.54-25.7-6.92-49.99-17.88-71.62
	l-30.79,17.85l-3.6-6.03l31.09-18.02c-13.71-24.46-33.41-45.2-57.14-60.31l-18.94,32.95l-6.17-3.45l19.07-33.17
	c-24.46-14.19-52.82-22.54-83.11-23.13v35.98h-7.1V67.03c-32.06,0.67-61.93,10.05-87.32,25.82l19.81,33.84l-6.15,3.5l-19.6-33.48
	c-21.32,14.5-39.15,33.63-51.95,55.94l33.56,19.11l-3.55,6.06l-33.37-19c-11.95,23-18.7,49.05-18.71,76.66h37.16v7H65.1
	c1.07,26.17,8.2,50.79,20.02,72.56l31.91-18.17l3.55,6.06l-31.97,18.2c13.14,21.95,31.2,40.68,52.66,54.78l17.32-29.57l6.15,3.5
	l-17.47,29.84c24.9,14.93,53.97,23.77,85.1,24.39v-38.48h7.1v38.48c29.28-0.59,56.74-8.45,80.63-21.81l-18.98-32.42l6.15-3.5
	l18.94,32.34c23.12-14.21,42.55-33.7,56.54-56.77l-33.35-18.98l3.55-6.06L386.24,315.83z"/>
<path class="st0" d="M608.79,411.26"/>
<path class="st1" d="M786.92,308.63c12.62-22.93,20.01-49.07,20.57-76.86h-37.79v-6.99h37.78c-0.54-25.7-6.92-49.99-17.88-71.62
	L758.83,171l-3.6-6.03l31.09-18.02c-13.71-24.46-33.41-45.2-57.14-60.31l-18.94,32.95l-6.17-3.45l19.07-33.17
	c-24.46-14.19-52.82-22.54-83.11-23.13v35.98h-7.1V59.84c-32.06,0.67-61.93,10.05-87.32,25.82l19.81,33.84l-6.15,3.5l-19.6-33.48
	c-21.32,14.5-39.15,33.63-51.95,55.94l33.56,19.11l-3.55,6.06l-33.37-19c-11.95,23-18.7,49.05-18.71,76.66h37.16v7h-37.01
	c1.07,26.17,8.2,50.79,20.02,72.56l31.91-18.17l3.55,6.06l-31.97,18.2c13.14,21.95,31.2,40.68,52.66,54.78l17.32-29.57l6.15,3.5
	l-17.47,29.84c24.9,14.93,53.97,23.77,85.1,24.39v-38.48h7.1v38.48c29.28-0.59,56.74-8.45,80.63-21.81l-18.98-32.42l6.15-3.5
	l18.94,32.34c23.12-14.21,42.55-33.7,56.54-56.77l-33.35-18.98l3.55-6.06L786.92,308.63z"/>
<path class="st1" d="M88.18,490.69v65.93h45v8.22H90.06c42.09,71.12,67.37,162.14,67.37,261.38c0,98.88-25.1,189.61-66.92,260.62
	h42.67v8.22h-45V1170c81.08-19.83,144-164.32,144-339.65S169.26,510.52,88.18,490.69z"/>
<path class="st1" d="M234,486v65.93h45v8.22h-43.12c42.09,71.12,67.37,162.14,67.37,261.38c0,98.88-25.1,189.61-66.92,260.62H279
	v8.22h-45v74.93c81.08-19.83,144-164.32,144-339.65S315.08,505.83,234,486z"/>
<path class="st1" d="M378,481.69v65.93h45v8.22h-43.12c42.09,71.12,67.37,162.14,67.37,261.38c0,98.88-25.1,189.61-66.92,260.62H423
	v8.22h-45V1161c81.08-19.83,144-164.32,144-339.65S459.08,501.52,378,481.69z"/>
<path class="st0" d="M665.29,477.15"/>
<path class="st0" d="M504,485.72"/>
<path class="st1" d="M529.18,481.69v65.93h45v8.22h-43.12c42.09,71.12,67.37,162.14,67.37,261.38c0,98.88-25.1,189.61-66.92,260.62
	h42.67v8.22h-45V1161c81.08-19.83,144-164.32,144-339.65S610.26,501.52,529.18,481.69z"/>
<path class="st1" d="M675,477v65.93h45v8.22h-43.12c42.09,71.12,67.37,162.14,67.37,261.38c0,98.88-25.1,189.61-66.92,260.62H720
	v8.22h-45v74.93c81.08-19.83,144-164.32,144-339.65S756.08,496.83,675,477z"/>
<path class="st1" d="M819,472.69v65.93h45v8.22h-43.12c42.09,71.12,67.37,162.14,67.37,261.38c0,98.88-25.1,189.61-66.92,260.62H864
	v8.22h-45V1152c81.08-19.83,144-164.32,144-339.65S900.08,492.52,819,472.69z"/>
<path class="st0" d="M1097.29,463.46"/>
<path class="st0" d="M1573.87,505.26"/>
<path class="st0" d="M936,472.03"/>
<path class="st1" d="M961.18,468v65.93h45v8.22h-43.12c42.09,71.12,67.37,162.14,67.37,261.38c0,98.88-25.1,189.61-66.92,260.62
	h42.67v8.22h-45v74.93c81.08-19.83,144-164.32,144-339.65S1042.26,487.83,961.18,468z"/>
<path class="st1" d="M1107,463.31v65.93h45v8.22h-43.12c42.09,71.12,67.37,162.14,67.37,261.38c0,98.88-25.1,189.61-66.92,260.62
	H1152v8.22h-45v74.93c81.08-19.83,144-164.32,144-339.65S1188.08,483.14,1107,463.31z"/>
<path class="st1" d="M1251,459v65.93h45v8.22h-43.12c42.09,71.12,67.37,162.14,67.37,261.38c0,98.88-25.1,189.61-66.92,260.62H1296
	v8.22h-45v74.93c81.08-19.83,144-164.32,144-339.65S1332.08,478.83,1251,459z"/>
<path class="st0" d="M1538.29,454.46"/>
<path class="st0" d="M1377,463.03"/>
<path class="st1" d="M1402.18,459v65.93h45v8.22h-43.12c42.09,71.12,67.37,162.14,67.37,261.38c0,98.88-25.1,189.61-66.92,260.62
	h42.67v8.22h-45v74.93c81.08-19.83,144-164.32,144-339.65S1483.26,478.83,1402.18,459z"/>
<path class="st1" d="M1548,454.31v65.93h45v8.22h-43.12c42.09,71.12,67.37,162.14,67.37,261.38c0,98.88-25.1,189.61-66.92,260.62
	H1593v8.22h-45v74.93c81.08-19.83,144-164.32,144-339.65S1629.08,474.14,1548,454.31z"/>
<path class="st1" d="M1692,450v65.93h45v8.22h-43.12c42.09,71.12,67.37,162.14,67.37,261.38c0,98.88-25.1,189.61-66.92,260.62H1737
	v8.22h-45v74.93c81.08-19.83,144-164.32,144-339.65S1773.08,469.83,1692,450z"/>
<path class="st0" d="M1121.79,741.26"/>
<path class="st1" d="M1194.43,302.8c12.62-22.93,20.01-49.07,20.57-76.86h-37.79v-6.99H1215c-0.54-25.7-6.92-49.99-17.88-71.62
	l-30.79,17.85l-3.6-6.03l31.09-18.02c-13.71-24.46-33.41-45.2-57.14-60.31l-18.94,32.95l-6.17-3.45l19.07-33.17
	c-24.46-14.19-52.82-22.54-83.11-23.13v35.98h-7.1V54c-32.06,0.67-61.93,10.05-87.32,25.82l19.81,33.84l-6.15,3.5l-19.6-33.48
	c-21.32,14.5-39.15,33.63-51.95,55.94l33.56,19.11l-3.55,6.06l-33.37-19c-11.95,23-18.7,49.05-18.71,76.66h37.16v7h-37.01
	c1.07,26.17,8.2,50.79,20.02,72.56l31.91-18.17l3.55,6.06l-31.97,18.2c13.14,21.95,31.2,40.68,52.66,54.78l17.32-29.57l6.15,3.5
	l-17.47,29.84c24.9,14.93,53.97,23.77,85.1,24.39v-38.48h7.1v38.48c29.28-0.59,56.74-8.45,80.63-21.81l-18.98-32.42l6.15-3.5
	l18.94,32.34c23.12-14.21,42.55-33.7,56.54-56.77l-33.35-18.98l3.55-6.06L1194.43,302.8z"/>
<path class="st0" d="M1104.87,277.26"/>
<path class="st0" d="M1069.29,226.46"/>
<path class="st1" d="M351,1224v65.93h45v8.22h-43.12c42.09,71.12,67.37,162.14,67.37,261.38c0,98.88-25.1,189.61-66.92,260.62H396
	v8.22h-45v74.93c81.08-19.83,144-164.32,144-339.65S432.08,1243.83,351,1224z"/>
<path class="st1" d="M216,1224v65.93h45v8.22h-43.12c42.09,71.12,67.37,162.14,67.37,261.38c0,98.88-25.1,189.61-66.92,260.62H261
	v8.22h-45v74.93c81.08-19.83,144-164.32,144-339.65S297.08,1243.83,216,1224z"/>
<path class="st1" d="M90,1215v65.93h45v8.22H91.88c42.09,71.12,67.37,162.14,67.37,261.38c0,98.88-25.1,189.61-66.92,260.62H135
	v8.22H90v74.93c81.08-19.83,144-164.32,144-339.65S171.08,1234.83,90,1215z"/>
</svg>
